<svg xmlns="http://www.w3.org/2000/svg" viewBox="-11202 1165 50 50"><defs><style>.a,.d{fill:none;}.a{stroke:#26c8a9;stroke-width:2px;}.b{fill:#26c8a9;}.c{stroke:none;}</style></defs><g transform="translate(-12005 -1741)"><g class="a" transform="translate(803 2906)"><rect class="c" width="50" height="50" rx="6"/><rect class="d" x="1" y="1" width="48" height="48" rx="5"/></g><g transform="translate(807 2916)"><path class="b" d="M27.8,0H15.2A2.205,2.205,0,0,0,13,2.2V27.8A2.205,2.205,0,0,0,15.2,30H27.8A2.205,2.205,0,0,0,30,27.8V2.2A2.205,2.205,0,0,0,27.8,0ZM14,4H29V23H14Zm1.2-3H27.8A1.2,1.2,0,0,1,29,2.2V3H14V2.2A1.2,1.2,0,0,1,15.2,1ZM27.8,29H15.2A1.2,1.2,0,0,1,14,27.8V24H29v3.8A1.2,1.2,0,0,1,27.8,29Z"/><path class="b" d="M28,49a2,2,0,1,0,2,2A2,2,0,0,0,28,49Zm0,3a1,1,0,1,1,1-1A1,1,0,0,1,28,52Z" transform="translate(-6.5 -24.5)"/><path class="b" d="M25.5,4h2a.5.5,0,0,0,0-1h-2a.5.5,0,0,0,0,1Z" transform="translate(-6 -1.5)"/><path class="b" d="M32.5,4H33a.5.5,0,0,0,0-1h-.5a.5.5,0,0,0,0,1Z" transform="translate(-9.5 -1.5)"/><path class="b" d="M28.981,11.02H27.019A1.02,1.02,0,0,0,26,12.039V14a1.02,1.02,0,0,0,1.019,1.019h1.962A1.02,1.02,0,0,0,30,14V12.039A1.02,1.02,0,0,0,28.981,11.02ZM29,14a.019.019,0,0,1-.019.019L27,14l.019-1.981L29,12.039Z" transform="translate(-6.5 -5.51)"/><path class="b" d="M19.981,11.02H18.019A1.02,1.02,0,0,0,17,12.039V14a1.02,1.02,0,0,0,1.019,1.019h1.962A1.02,1.02,0,0,0,21,14V12.039A1.02,1.02,0,0,0,19.981,11.02ZM20,14a.019.019,0,0,1-.019.019L18,14l.019-1.981L20,12.039Z" transform="translate(-2 -5.51)"/><path class="b" d="M37.981,11.02H36.019A1.02,1.02,0,0,0,35,12.039V14a1.02,1.02,0,0,0,1.019,1.019h1.962A1.02,1.02,0,0,0,39,14V12.039A1.02,1.02,0,0,0,37.981,11.02ZM38,14a.019.019,0,0,1-.019.019L36,14l.019-1.981L38,12.039Z" transform="translate(-11 -5.51)"/><path class="b" d="M28.981,20H27.019A1.02,1.02,0,0,0,26,21.019v1.962A1.02,1.02,0,0,0,27.019,24h1.962A1.02,1.02,0,0,0,30,22.981V21.019A1.02,1.02,0,0,0,28.981,20ZM29,22.981a.019.019,0,0,1-.019.019L27,22.981,27.019,21,29,21.019Z" transform="translate(-6.5 -10)"/><path class="b" d="M19.981,20H18.019A1.02,1.02,0,0,0,17,21.019v1.962A1.02,1.02,0,0,0,18.019,24h1.962A1.02,1.02,0,0,0,21,22.981V21.019A1.02,1.02,0,0,0,19.981,20ZM20,22.981a.019.019,0,0,1-.019.019L18,22.981,18.019,21,20,21.019Z" transform="translate(-2 -10)"/><path class="b" d="M37.981,20H36.019A1.02,1.02,0,0,0,35,21.019v1.962A1.02,1.02,0,0,0,36.019,24h1.962A1.02,1.02,0,0,0,39,22.981V21.019A1.02,1.02,0,0,0,37.981,20ZM38,22.981a.019.019,0,0,1-.019.019L36,22.981,36.019,21,38,21.019Z" transform="translate(-11 -10)"/><path class="b" d="M28.981,29H27.019A1.02,1.02,0,0,0,26,30.019v1.962A1.02,1.02,0,0,0,27.019,33h1.962A1.02,1.02,0,0,0,30,31.981V30.019A1.02,1.02,0,0,0,28.981,29ZM29,31.981a.019.019,0,0,1-.019.019L27,31.981,27.019,30,29,30.019Z" transform="translate(-6.5 -14.5)"/><path class="b" d="M19.981,29H18.019A1.02,1.02,0,0,0,17,30.019v1.962A1.02,1.02,0,0,0,18.019,33h1.962A1.02,1.02,0,0,0,21,31.981V30.019A1.02,1.02,0,0,0,19.981,29ZM20,31.981a.019.019,0,0,1-.019.019L18,31.981,18.019,30,20,30.019Z" transform="translate(-2 -14.5)"/><path class="b" d="M37.981,29H36.019A1.02,1.02,0,0,0,35,30.019v1.962A1.02,1.02,0,0,0,36.019,33h1.962A1.02,1.02,0,0,0,39,31.981V30.019A1.02,1.02,0,0,0,37.981,29ZM38,31.981a.019.019,0,0,1-.019.019L36,31.981,36.019,30,38,30.019Z" transform="translate(-11 -14.5)"/></g></g></svg>