<svg xmlns="http://www.w3.org/2000/svg" viewBox="-11202 808 50 50"><defs><style>.a,.d{fill:none;}.a{stroke:#26c8a9;stroke-width:2px;}.b{fill:#26c8a9;}.c{stroke:none;}</style></defs><g transform="translate(-12005 -1741)"><g class="a" transform="translate(803 2549)"><rect class="c" width="50" height="50" rx="6"/><rect class="d" x="1" y="1" width="48" height="48" rx="5"/></g><g transform="translate(813 2554.652)"><path class="b" d="M18.1,10.681a5.451,5.451,0,0,1,2.537,4.05,4.4,4.4,0,1,0-2.537-4.05ZM15.221,19.69a4.4,4.4,0,1,0-4.4-4.4A4.4,4.4,0,0,0,15.221,19.69Zm1.866.3H13.354a5.64,5.64,0,0,0-5.633,5.634v4.566l.012.072.314.1a25.643,25.643,0,0,0,7.66,1.235,15.725,15.725,0,0,0,6.688-1.256l.294-.149h.031V25.624A5.638,5.638,0,0,0,17.088,19.99Zm7.279-4.542h-3.7a5.422,5.422,0,0,1-1.674,3.777A6.694,6.694,0,0,1,23.77,25.63v1.407a15.16,15.16,0,0,0,5.9-1.24l.294-.149H30V21.081A5.64,5.64,0,0,0,24.367,15.448ZM7.5,15.148a4.371,4.371,0,0,0,2.34-.679A5.445,5.445,0,0,1,11.888,11c0-.082.012-.164.012-.247a4.4,4.4,0,1,0-4.4,4.4Zm3.951,4.076A5.426,5.426,0,0,1,9.78,15.469c-.137-.01-.273-.021-.413-.021H5.633A5.64,5.64,0,0,0,0,21.081v4.566l.012.07.314.1A26.413,26.413,0,0,0,6.67,27.009V25.63A6.7,6.7,0,0,1,11.452,19.224Z"/></g></g></svg>