<svg xmlns="http://www.w3.org/2000/svg" viewBox="-11590 1165 50 50"><defs><style>.a,.d{fill:none;}.a{stroke:#26c8a9;stroke-width:2px;}.b{fill:#26c8a9;}.c{stroke:none;}</style></defs><g transform="translate(-12005 -1741)"><g class="a" transform="translate(415 2906)"><rect class="c" width="50" height="50" rx="6"/><rect class="d" x="1" y="1" width="48" height="48" rx="5"/></g><g transform="translate(1 1076)"><path class="b" d="M106.576,12.441h-.032V8.261a8.261,8.261,0,1,0-16.523,0v4.179h-.032a1.524,1.524,0,0,0-1.523,1.523v6.22a9.816,9.816,0,0,0,19.633,0v-6.22A1.524,1.524,0,0,0,106.576,12.441ZM90.993,8.261a7.289,7.289,0,1,1,14.579,0v4.179h-1.1V8.261a6.188,6.188,0,0,0-12.376,0v4.179h-1.1Zm12.505,0v4.179H93.066V8.261a5.216,5.216,0,0,1,10.432,0Zm3.629,11.922a8.844,8.844,0,1,1-17.689,0v-6.22a.551.551,0,0,1,.551-.551h16.587a.551.551,0,0,1,.551.551v6.22Z" transform="translate(339.801 1839.312)"/><path class="b" d="M223.207,300.786a2.041,2.041,0,0,0-.486,4.023v1.646a.486.486,0,0,0,.972,0v-1.646a2.041,2.041,0,0,0-.486-4.023Zm0,3.11a1.069,1.069,0,1,1,1.069-1.069A1.07,1.07,0,0,1,223.207,303.9Z" transform="translate(214.876 1556.15)"/><path class="b" d="M355.388,318.479a.486.486,0,0,0-.486.486V320a6.749,6.749,0,0,1-.967,3.484.486.486,0,0,0,.833.5A7.722,7.722,0,0,0,355.873,320v-1.037A.486.486,0,0,0,355.388,318.479Z" transform="translate(89.953 1539.494)"/><path class="b" d="M131.391,367.761a6.827,6.827,0,0,1-3.715-4.667.486.486,0,1,0-.949.208,7.805,7.805,0,0,0,4.246,5.337.486.486,0,1,0,.418-.878Z" transform="translate(303.792 1497.853)"/><path class="b" d="M372.045,265.4a.486.486,0,0,0-.486.486v1.037a.486.486,0,0,0,.972,0v-1.037A.486.486,0,0,0,372.045,265.4Z" transform="translate(73.295 1589.467)"/></g></g></svg>