<svg xmlns="http://www.w3.org/2000/svg" xmlns:xlink="http://www.w3.org/1999/xlink" viewBox="-11591 808 50 50"><defs><style>.a{fill:#26c8a9;}.b,.e{fill:none;}.b{stroke:#26c8a9;stroke-width:2px;}.c{clip-path:url(#a);}.d{stroke:none;}</style><clipPath id="a"><path class="a" d="M0,0H36V36H0Z"/></clipPath></defs><g transform="translate(-12005 -1741)"><g class="b" transform="translate(414 2549)"><rect class="d" width="50" height="50" rx="6"/><rect class="e" x="1" y="1" width="48" height="48" rx="5"/></g><g class="c" transform="translate(421 2556)"><path class="a" d="M34,9a3.009,3.009,0,0,1-3,3,2.549,2.549,0,0,1-.765-.1L24.9,17.22A2.65,2.65,0,0,1,25,18a3,3,0,0,1-6,0,2.65,2.65,0,0,1,.1-.78L15.28,13.395a2.95,2.95,0,0,1-1.56,0l-6.825,6.84A2.549,2.549,0,0,1,7,21a3,3,0,1,1-3-3,2.549,2.549,0,0,1,.765.1L11.6,11.28a2.65,2.65,0,0,1-.1-.78,3,3,0,0,1,6,0,2.65,2.65,0,0,1-.1.78l3.825,3.825a2.95,2.95,0,0,1,1.56,0L28.1,9.765A2.549,2.549,0,0,1,28,9a3,3,0,0,1,6,0Z" transform="translate(0.5 3)"/></g></g></svg>