<svg xmlns="http://www.w3.org/2000/svg" viewBox="-10812 1165 50 50"><defs><style>.a,.d{fill:none;}.a{stroke:#26c8a9;stroke-width:2px;}.b{fill:#26c8a9;}.c{stroke:none;}</style></defs><g transform="translate(-12005 -1741)"><g class="a" transform="translate(1193 2906)"><rect class="c" width="50" height="50" rx="6"/><rect class="d" x="1" y="1" width="48" height="48" rx="5"/></g><g transform="translate(1202 2904)"><g transform="translate(0 12)"><path class="b" d="M27.17,23.349a11.321,11.321,0,1,0-22.642-.028v.028A4.8,4.8,0,0,0,0,28.132V28.7a4.807,4.807,0,0,0,4.811,4.811h.255l2.009,3.2A7.57,7.57,0,0,0,13.557,40.3h.4a2.264,2.264,0,1,0,0-1.132h-.4a6.457,6.457,0,0,1-5.519-3.085L6.4,33.509h.4a1.135,1.135,0,0,0,1.132-1.132V24.453a1.135,1.135,0,0,0-1.132-1.132H5.66a10.189,10.189,0,0,1,20.377,0H24.906a1.135,1.135,0,0,0-1.132,1.132v7.925a1.135,1.135,0,0,0,1.132,1.132h1.981A4.807,4.807,0,0,0,31.7,28.7v-.566A4.8,4.8,0,0,0,27.17,23.349ZM16.132,38.6A1.132,1.132,0,1,1,15,39.736,1.135,1.135,0,0,1,16.132,38.6ZM6.792,24.453v7.925H4.811A3.672,3.672,0,0,1,1.132,28.7v-.566a3.672,3.672,0,0,1,3.679-3.679ZM30.566,28.7a3.672,3.672,0,0,1-3.679,3.679H24.906V24.453h1.981a3.672,3.672,0,0,1,3.679,3.679Z" transform="translate(0 -12)"/><path class="b" d="M273.438,67.539a2.614,2.614,0,0,1-.226-.142,2.61,2.61,0,0,0-.226-.142.533.533,0,0,0-.764.2.555.555,0,0,0,.2.764,2.614,2.614,0,0,1,.226.142,1.147,1.147,0,0,0,.255.142.546.546,0,0,0,.283.085.525.525,0,0,0,.481-.283A.571.571,0,0,0,273.438,67.539Z" transform="translate(-252.891 -63.265)"/><path class="b" d="M140.486,52a8.2,8.2,0,0,0-6.226,2.858.574.574,0,0,0,.057.792.6.6,0,0,0,.368.142.509.509,0,0,0,.425-.2,7.14,7.14,0,0,1,5.377-2.462,7.026,7.026,0,0,1,1.528.17.6.6,0,0,0,.679-.425.591.591,0,0,0-.425-.679A7.654,7.654,0,0,0,140.486,52Z" transform="translate(-124.637 -49.17)"/></g></g></g></svg>