<svg xmlns="http://www.w3.org/2000/svg" viewBox="-10812 808 50 50"><defs><style>.a,.d{fill:none;}.a{stroke:#26c8a9;stroke-width:2px;}.b{fill:#26c8a9;}.c{stroke:none;}</style></defs><g transform="translate(-12005 -1741)"><g class="a" transform="translate(1193 2549)"><rect class="c" width="50" height="50" rx="6"/><rect class="d" x="1" y="1" width="48" height="48" rx="5"/></g><g transform="translate(1145.619 2559)"><path class="b" d="M78.319,0H63.22a1.842,1.842,0,0,0-1.839,1.84V28.16A1.842,1.842,0,0,0,63.22,30h18.5a1.841,1.841,0,0,0,1.84-1.84V5.689Zm.434,2.753,2.295,2.494H78.754ZM82.01,28.16a.3.3,0,0,1-.3.3H63.22a.3.3,0,0,1-.294-.3V1.84a.294.294,0,0,1,.294-.294H77.208V6.02a.773.773,0,0,0,.773.771H82.01ZM65.651,8.217H78.77a.579.579,0,0,1,0,1.158H65.651a.579.579,0,0,1,0-1.158Zm13.7,4.468a.579.579,0,0,1-.579.579H65.651a.579.579,0,0,1,0-1.158H78.77A.579.579,0,0,1,79.349,12.685Zm0,3.762a.579.579,0,0,1-.579.579H65.651a.579.579,0,0,1,0-1.158H78.77A.579.579,0,0,1,79.349,16.447Zm0,3.826a.579.579,0,0,1-.579.579H65.651a.579.579,0,0,1,0-1.158H78.77A.579.579,0,0,1,79.349,20.273Z"/></g></g></svg>