<svg xmlns="http://www.w3.org/2000/svg" viewBox="-11154 7109 24 24"><defs><style>.a{fill:#fff;}</style></defs><path class="a" d="M12,0A12,12,0,1,0,24,12,12,12,0,0,0,12,0Zm5.97,9.306.009.383A8.4,8.4,0,0,1,5.044,16.767a6.076,6.076,0,0,0,.705.042,5.928,5.928,0,0,0,3.669-1.265,2.959,2.959,0,0,1-2.76-2.052,3.038,3.038,0,0,0,1.335-.051,2.957,2.957,0,0,1-2.37-2.9v-.038a2.95,2.95,0,0,0,1.338.371,2.959,2.959,0,0,1-.915-3.943,8.385,8.385,0,0,0,6.09,3.087,2.957,2.957,0,0,1,5.035-2.694,5.983,5.983,0,0,0,1.877-.717,2.962,2.962,0,0,1-1.3,1.635,5.923,5.923,0,0,0,1.7-.465A5.972,5.972,0,0,1,17.97,9.306Z" transform="translate(-11154 7109)"/></svg>