<svg xmlns="http://www.w3.org/2000/svg" viewBox="-11218 7109 24 24.001"><defs><style>.a{fill:#fff;}</style></defs><g transform="translate(-11218 7109)"><path class="a" d="M23.817,12.494a2.1,2.1,0,0,0-2.776-1.062l-1.011.453L17.437,6.092l1.011-.452A2.1,2.1,0,0,0,16.732,1.8l-1.011.453-.453-1.012A2.1,2.1,0,0,0,11.433,2.96l.453,1.011L6.091,6.563,5.639,5.552A2.1,2.1,0,1,0,1.8,7.267l.452,1.011-1.011.453A2.1,2.1,0,0,0,2.96,12.567l1.011-.453,2.591,5.795-1.011.452A2.1,2.1,0,0,0,7.267,22.2l1.011-.453.453,1.011a2.1,2.1,0,1,0,3.836-1.715l-.451-1.012,5.794-2.591.452,1.008A2.1,2.1,0,1,0,22.2,16.734l-.452-1.011,1.01-.453A2.1,2.1,0,0,0,23.817,12.494ZM10.4,16.193,7.807,10.4,13.6,7.807,16.193,13.6Z" transform="translate(0 0)"/></g></svg>