<svg xmlns="http://www.w3.org/2000/svg" viewBox="-11090 7109 24 24"><defs><style>.a{fill:#fff;}</style></defs><path class="a" d="M12.017,11.936h-.035c-1.489,0-2.8-.377-3.577.335a1.959,1.959,0,0,0-.661,1.5c0,2.315,1.855,2.6,4.237,2.6h.035c2.382,0,4.237-.285,4.237-2.6a1.959,1.959,0,0,0-.66-1.5C14.819,11.559,13.507,11.936,12.017,11.936ZM9.992,15.1c-.453,0-.821-.509-.821-1.137s.368-1.137.821-1.137.821.509.821,1.137S10.445,15.1,9.992,15.1Zm4.016,0c-.453,0-.821-.509-.821-1.137s.368-1.137.821-1.137.821.509.821,1.137S14.461,15.1,14.008,15.1ZM12,0A12,12,0,1,0,24,12,12,12,0,0,0,12,0Zm1.094,16.925H10.905c-.951,0-4.716-.073-4.716-4.611a3.424,3.424,0,0,1,.944-2.444,5.614,5.614,0,0,1,.4-2.8,7.11,7.11,0,0,1,2.875,1.313A6.834,6.834,0,0,1,12,8.237a6.826,6.826,0,0,1,1.591.15,7.109,7.109,0,0,1,2.875-1.313,5.615,5.615,0,0,1,.4,2.8,3.423,3.423,0,0,1,.944,2.444C17.81,16.853,14.045,16.925,13.094,16.925Z" transform="translate(-11090 7109)"/></svg>