<svg xmlns="http://www.w3.org/2000/svg" viewBox="-10962 7109 24 24"><defs><style>.a{fill:#fff;}</style></defs><g transform="translate(-10962 7109)"><path class="a" d="M39.969,42.368l5.387-2.793-5.387-2.811Z" transform="translate(-30.156 -27.738)"/><path class="a" d="M12,0A12,12,0,1,0,24,12,12,12,0,0,0,12,0Zm8.176,16.005a2.141,2.141,0,0,1-1.832,1.665A56.826,56.826,0,0,1,12,17.905a56.848,56.848,0,0,1-6.346-.235,2.139,2.139,0,0,1-1.831-1.665A18.14,18.14,0,0,1,3.527,12a18.139,18.139,0,0,1,.3-4.005A2.14,2.14,0,0,1,5.657,6.329,56.907,56.907,0,0,1,12,6.095a56.883,56.883,0,0,1,6.345.235,2.14,2.14,0,0,1,1.832,1.665A18.138,18.138,0,0,1,20.472,12,18.139,18.139,0,0,1,20.176,16.005Z"/></g></svg>