<svg xmlns="http://www.w3.org/2000/svg" viewBox="-10898 7112 24 20.896"><defs><style>.a{fill:#fff;}</style></defs><path class="a" d="M.424,29.42l5.53,2.064,2.14,6.884a.651.651,0,0,0,1.034.311l3.083-2.513a.92.92,0,0,1,1.121-.031l5.56,4.037a.652.652,0,0,0,1.021-.394l4.073-19.591a.652.652,0,0,0-.873-.741L.418,28.2A.652.652,0,0,0,.424,29.42Zm7.326.965,10.808-6.657a.188.188,0,0,1,.227.3l-8.92,8.291a1.849,1.849,0,0,0-.573,1.106l-.3,2.252a.279.279,0,0,1-.546.04L7.274,31.61A1.088,1.088,0,0,1,7.75,30.385Z" transform="translate(-10898 7092.6)"/></svg>